{"title":"Battlestar.Galactica.The.Plan.2009.720p.BluRay","uid":11686639,"size":2700092239,"categoryP":"video","categoryS":"hd___tv_shows","magnet":"?xt=urn:btih:becf31495f71841edd70599816769b0551c16169&amp;dn=Battlestar.Galactica.The.Plan.2009.720p.BluRay&amp;tr=udp%3A%2F%2Ftracker.openbittorrent.com%3A80&amp;tr=udp%3A%2F%2Fopen.demonii.com%3A1337&amp;tr=udp%3A%2F%2Ftracker.coppersurfer.tk%3A6969&amp;tr=udp%3A%2F%2Fexodus.desync.com%3A6969","seeders":0,"leechers":1,"uploader":"o2286055","files":3,"time":1423341852,"description":"Battlestar Galactica: The Plan\nVideo 112 min, Action | Adventure | Drama, 27 October 2009 (USA) \n&quot;When the initial Cylon attack against the Twelve Colonies fails to achieve complete extermination of human life as planned, twin Number Ones (Cavils) embedded on Galactica and Caprica must improvise to destroy the human survivors.&quot;\niMSB: tt1286130\nAudio: English\nSubtitles: English\nChapters\n\nGeneral\nFormat                                   : MPEG-4\nFormat profile                           : Base Media / Version 2\nCodec ID                                 : mp42\nFile size                                : 2.51 GiB\nDuration                                 : 1h 51mn\nOverall bit rate mode                    : Variable\nOverall bit rate                         : 3 232 Kbps\nWriting application                      : HandBrake 0.10.0 2014112200\n\nVideo\nID                                       : 1\nFormat                                   : AVC\nFormat/Info                              : Advanced Video Codec\nFormat profile                           : &lt;a class=&quot;__cf_email__&quot; href=&quot;/cdn-cgi/l/email-protection&quot; data-cfemail=&quot;1850717f7058542b3629&quot;&gt;[email&amp;#160;protected]&lt;/a&gt;&lt;script cf-hash='f9e31' type=&quot;text/javascript&quot;&gt;\n/* &lt;![CDATA[ */!function(){try{var t=&quot;currentScript&quot;in document?document.currentScript:function(){for(var t=document.getElementsByTagName(&quot;script&quot;),e=t.length;e--;)if(t[e].getAttribute(&quot;cf-hash&quot;))return t[e]}();if(t&amp;&amp;t.previousSibling){var e,r,n,i,c=t.previousSibling,a=c.getAttribute(&quot;data-cfemail&quot;);if(a){for(e=&quot;&quot;,r=parseInt(a.substr(0,2),16),n=2;a.length-n;n+=2)i=parseInt(a.substr(n,2),16)^r,e+=String.fromCharCode(i);e=document.createTextNode(e),c.parentNode.replaceChild(e,c)}}}catch(u){}}();/* ]]&gt; */&lt;/script&gt;\nFormat settings, CABAC                   : Yes\nFormat settings, ReFrames                : 4 frames\nCodec ID                                 : avc1\nCodec ID/Info                            : Advanced Video Coding\nDuration                                 : 1h 51mn\nBit rate                                 : 3 065 Kbps\nWidth                                    : 1 280 pixels\nHeight                                   : 720 pixels\nDisplay aspect ratio                     : 16:9\nFrame rate mode                          : Variable\nFrame rate                               : 23.976 fps\nMinimum frame rate                       : 23.810 fps\nMaximum frame rate                       : 24.390 fps\nColor space                              : YUV\nChroma subsampling                       : 4:2:0\nBit depth                                : 8 bits\nScan type                                : Progressive\nBits/(Pixel*Frame)                       : 0.139\nStream size                              : 2.38 GiB (95%)\nWriting library                          : x264 core 142 r2479 dd79a61\nEncoding settings                        : cabac=1 / ref=3 / deblock=1:-1:-1 / analyse=0x3:0x113 / me=hex / subme=7 / psy=1 / psy_rd=1.00:0.15 / mixed_ref=1 / me_range=16 / chroma_me=1 / trellis=1 / 8x8dct=1 / cqm=0 / deadzone=21,11 / fast_pskip=1 / chroma_qp_offset=-3 / threads=6 / lookahead_threads=1 / sliced_threads=0 / nr=0 / decimate=1 / interlaced=0 / bluray_compat=0 / constrained_intra=0 / bframes=3 / b_pyramid=2 / b_adapt=1 / b_bias=0 / direct=1 / weightb=1 / open_gop=0 / weightp=2 / keyint=240 / keyint_min=24 / scenecut=40 / intra_refresh=0 / rc_lookahead=40 / rc=crf / mbtree=1 / crf=23.0 / qcomp=0.60 / qpmin=0 / qpmax=69 / qpstep=4 / ip_ratio=1.40 / aq=1:1.00\nColor primaries                          : BT.709\nTransfer characteristics                 : BT.709\nMatrix coefficients                      : BT.709\nColor range                              : Limited\n\nAudio\nID                                       : 2\nFormat                                   : AAC\nFormat/Info                              : Advanced Audio Codec\nFormat profile                           : LC\nCodec ID                                 : 40\nDuration                                 : 1h 51mn\nBit rate mode                            : Variable\nBit rate                                 : 160 Kbps\nChannel(s)                               : 2 channels\nChannel positions                        : Front: L R\nSampling rate                            : 48.0 KHz\nCompression mode                         : Lossy\nStream size                              : 128 MiB (5%)\nTitle                                    : Stereo / Stereo\nLanguage                                 : English\n\nText\nID                                       : 3\nFormat                                   : Timed Text\nMuxing mode                              : sbtl\nCodec ID                                 : tx3g\nDuration                                 : 1h 48mn\nBit rate mode                            : Variable\nBit rate                                 : 60 bps\nStream size                              : 47.5 KiB (0%)\nLanguage                                 : English\n\nMenu\nID                                       : 4\nCodec ID                                 : text\nDuration                                 : 1h 51mn\nLanguage                                 : English\nBit rate mode                            : CBR\n00:00:00.000                             : 00:00:00.000\n00:07:08.678                             : 00:07:08.553\n00:15:15.789                             : 00:15:15.665\n00:21:40.257                             : 00:21:40.174\n00:24:51.239                             : 00:24:51.115\n00:28:22.117                             : 00:28:22.034\n00:34:08.087                             : 00:34:08.004\n00:39:55.393                             : 00:39:55.310\n00:46:27.868                             : 00:46:27.785\n00:52:14.089                             : 00:52:14.006\n00:56:07.697                             : 00:56:07.573\n01:01:48.371                             : 01:01:48.246\n01:08:03.913                             : 01:08:03.788\n01:12:40.939                             : 01:12:40.856\n01:21:01.940                             : 01:21:01.857\n01:25:48.184                             : 01:25:48.101\n01:30:50.903                             : 01:30:50.737\n01:35:22.049                             : 01:35:21.966\n01:41:49.019                             : 01:41:48.936\n01:46:56.410                             : 01:46:56.327","torrent":{"xt":"urn:btih:becf31495f71841edd70599816769b0551c16169","amp;dn":"Battlestar.Galactica.The.Plan.2009.720p.BluRay","amp;tr":["udp%3A%2F%2Ftracker.openbittorrent.com%3A80","udp%3A%2F%2Fopen.demonii.com%3A1337","udp%3A%2F%2Ftracker.coppersurfer.tk%3A6969","udp%3A%2F%2Fexodus.desync.com%3A6969"],"infoHash":"becf31495f71841edd70599816769b0551c16169","infoHashBuffer":{"type":"Buffer","data":[190,207,49,73,95,113,132,30,221,112,89,152,22,118,155,5,81,193,97,105]},"announce":[],"urlList":[]}}